<?xml version="1.0" encoding="UTF-8" standalone="no"?>
<svg
   height="16px"
   viewBox="0 0 16 16"
   width="16px"
   version="1.1"
   id="svg1"
   sodipodi:docname="arrow-circular-small-bottom-left-symbolic.svg"
   inkscape:version="1.3.2 (091e20ef0f, 2023-11-25)"
   xmlns:inkscape="http://www.inkscape.org/namespaces/inkscape"
   xmlns:sodipodi="http://sodipodi.sourceforge.net/DTD/sodipodi-0.dtd"
   xmlns="http://www.w3.org/2000/svg"
   xmlns:svg="http://www.w3.org/2000/svg">
  <defs
     id="defs1" />
  <sodipodi:namedview
     id="namedview1"
     pagecolor="#ffffff"
     bordercolor="#000000"
     borderopacity="0.25"
     inkscape:showpageshadow="2"
     inkscape:pageopacity="0.0"
     inkscape:pagecheckerboard="0"
     inkscape:deskcolor="#d1d1d1"
     inkscape:zoom="50.1875"
     inkscape:cx="8"
     inkscape:cy="8"
     inkscape:window-width="1920"
     inkscape:window-height="1043"
     inkscape:window-x="0"
     inkscape:window-y="1200"
     inkscape:window-maximized="1"
     inkscape:current-layer="svg1" />
  <path
     d="m 8.261719,2.0075666 c 0.191406,0.00781 0.371093,0.035156 0.5625,0.0625 1.523437,0.21875 2.976562,1.023438 3.96875,2.34375 1.980469,2.640625 1.421875,6.4257814 -1.21875,8.4062504 -2.640625,1.980469 -6.425781,1.421875 -8.40625,-1.21875 -0.125,-0.171875 -0.191407,-0.382812 -0.1875,-0.59375 0,0 -0.00781,-1.0078124 1,-1 0.3125,0 0.625,0.152344 0.8125,0.40625 1.332031,1.777344 3.816406,2.113281 5.59375,0.78125 C 12.164062,9.8630356 12.5,7.3786606 11.167969,5.6013166 9.835938,3.8239726 7.351562,3.4880356 5.574219,4.8200666 c -0.429688,0.320312 -0.769531,0.734375 -1.03125,1.1875 h 1.4375 c 0.550781,0 1,0.449219 1,1 0,0 -0.00781,0.992188 -1.007813,1 H 0.980469 v -5 c -0.007813,-1.007812 1,-1 1,-1 0.550781,0 1,0.449219 1,1 v 1.6875 c 0.382812,-0.578125 0.847656,-1.082031 1.40625,-1.5 1.15625,-0.867188 2.53125,-1.253906 3.875,-1.1875 z m 0,0"
     fill="#222222"
     id="path1" />
</svg>
