<?xml version="1.0" encoding="UTF-8" standalone="no"?>
<svg
   height="16px"
   viewBox="0 0 16 16"
   width="16px"
   version="1.1"
   id="svg3"
   sodipodi:docname="sidebar-show-symbolic.svg"
   inkscape:version="1.4.2 (ebf0e940d0, 2025-05-08)"
   xmlns:inkscape="http://www.inkscape.org/namespaces/inkscape"
   xmlns:sodipodi="http://sodipodi.sourceforge.net/DTD/sodipodi-0.dtd"
   xmlns="http://www.w3.org/2000/svg"
   xmlns:svg="http://www.w3.org/2000/svg">
  <defs
     id="defs3" />
  <sodipodi:namedview
     id="namedview3"
     pagecolor="#ffffff"
     bordercolor="#000000"
     borderopacity="0.25"
     inkscape:showpageshadow="2"
     inkscape:pageopacity="0.0"
     inkscape:pagecheckerboard="0"
     inkscape:deskcolor="#d1d1d1"
     inkscape:zoom="20.064155"
     inkscape:cx="4.8344922"
     inkscape:cy="6.6785768"
     inkscape:window-width="1920"
     inkscape:window-height="1131"
     inkscape:window-x="0"
     inkscape:window-y="32"
     inkscape:window-maximized="1"
     inkscape:current-layer="svg3" />
  <g
     fill="#2e3436"
     id="g3"
     transform="matrix(-1,0,0,1,16,0)">
    <path
       d="M 6.5,14 V 2 h -5 v 12 z m 0,0"
       fill-opacity="0.34902"
       id="path1" />
    <path
       d="M 3,1 C 1.355469,1 0,2.355469 0,4 v 8 c 0,1.644531 1.355469,3 3,3 h 10 c 1.644531,0 3,-1.355469 3,-3 V 4 C 16,2.355469 14.644531,1 13,1 Z m 0,2 h 10 c 0.570312,0 1,0.429688 1,1 v 8 c 0,0.570312 -0.429688,1 -1,1 H 3 C 2.429688,13 2,12.570312 2,12 V 4 C 2,3.429688 2.429688,3 3,3 Z m 0,0"
       id="path2" />
    <path
       d="M 6,2 H 7 V 14 H 6 Z m 0,0"
       id="path3" />
  </g>
</svg>
