<svg xmlns="http://www.w3.org/2000/svg" xmlns:svg="http://www.w3.org/2000/svg" id="svg3" width="16" height="16" version="1.1" viewBox="0 0 16 16"><g id="g3" fill="#2e3436" transform="matrix(-1,0,0,1,16,0)"><path id="path1" fill-opacity=".349" d="M 6.5,14 V 2 h -5 v 12 z m 0,0"/><path id="path2" d="M 3,1 C 1.355469,1 0,2.355469 0,4 v 8 c 0,1.644531 1.355469,3 3,3 h 10 c 1.644531,0 3,-1.355469 3,-3 V 4 C 16,2.355469 14.644531,1 13,1 Z m 0,2 h 10 c 0.570312,0 1,0.429688 1,1 v 8 c 0,0.570312 -0.429688,1 -1,1 H 3 C 2.429688,13 2,12.570312 2,12 V 4 C 2,3.429688 2.429688,3 3,3 Z m 0,0"/><path id="path3" d="M 6,2 H 7 V 14 H 6 Z m 0,0"/></g></svg>