<svg xmlns="http://www.w3.org/2000/svg" xmlns:svg="http://www.w3.org/2000/svg" id="svg2" width="16" height="16" version="1.1"><defs id="defs2"><linearGradient id="SVGID_2_" x1="1.792" x2="1.792" y1="768.495" y2="767.795" gradientTransform="matrix(448,0,0,-448,-447,344513)" gradientUnits="userSpaceOnUse"><stop id="stop27" offset="0" style="stop-color:#4d4d4d"/><stop id="stop29" offset="1" style="stop-color:#444"/></linearGradient><linearGradient id="linearGradient173" x1="1.792" x2="1.792" y1="768.495" y2="767.795" gradientTransform="matrix(448,0,0,-448,-447,344513)" gradientUnits="userSpaceOnUse"><stop id="stop169" offset="0" style="stop-color:#4d4d4d"/><stop id="stop171" offset="1" style="stop-color:#444"/></linearGradient></defs><rect id="rect9125-7-2" width="17.381" height="17.381" x="46.191" y="-.121" style="display:inline;vector-effect:none;fill:none;fill-opacity:1;stroke:none;stroke-width:1.24569;stroke-linecap:butt;stroke-linejoin:miter;stroke-miterlimit:4;stroke-dasharray:none;stroke-dashoffset:0;stroke-opacity:1;marker:none;marker-start:none;marker-mid:none;marker-end:none;paint-order:normal;enable-background:new"/><g id="g6"><path id="path32" style="fill:#2e3436;fill-opacity:1;stroke-width:.815618;stroke-miterlimit:10;stroke-dasharray:none" d="m 1.2734381,0.31347646 c -0.52870998,0 -0.95898498,0.4322292 -0.95898498,0.96093744 V 14.725586 c 0,0.52871 0.430275,0.960938 0.95898498,0.960938 H 14.726562 c 0.528709,0 0.958985,-0.432228 0.958985,-0.960938 V 1.2744139 c 0,-0.52870824 -0.430276,-0.96093744 -0.958985,-0.96093744 z m 2.445312,4.94531244 c 0.554293,0 0.981479,0.237782 1.28125,0.7128906 0.299772,0.4694528 0.449219,1.1469525 0.449219,2.0292969 0,0.882345 -0.149447,1.560048 -0.449219,2.0351556 -0.299771,0.469455 -0.726957,0.705079 -1.28125,0.705079 -0.548637,0 -0.975823,-0.235624 -1.28125,-0.705079 -0.299771,-0.4751076 -0.449219,-1.1528106 -0.449219,-2.0351556 0,-0.8823444 0.149448,-1.5598441 0.449219,-2.0292969 0.305427,-0.4751086 0.732613,-0.7128906 1.28125,-0.7128906 z m 8.4843749,0 c 0.554293,0 0.981478,0.2377815 1.28125,0.7128906 0.299771,0.4694532 0.449219,1.1469516 0.449219,2.0292969 0,0.882346 -0.149448,1.560047 -0.449219,2.0351556 -0.299772,0.469455 -0.726957,0.705079 -1.28125,0.705079 -0.548638,0 -0.975822,-0.235624 -1.28125,-0.705079 -0.299771,-0.4751086 -0.449219,-1.1528096 -0.449219,-2.0351556 0,-0.8823453 0.149448,-1.5598437 0.449219,-2.0292969 0.305428,-0.4751091 0.732612,-0.7128906 1.28125,-0.7128906 z M 8.0703121,5.3779295 h 0.492188 v 4.6582025 h 0.992188 v 0.593751 h -2.824219 v -0.593751 h 1.136719 v -3.68164 c -0.06222,0.056561 -0.138023,0.1155179 -0.228516,0.1777344 -0.084841,0.05656 -0.181597,0.1133613 -0.289063,0.1699219 -0.101809,0.05656 -0.209144,0.1092519 -0.322265,0.1601562 -0.113121,0.050905 -0.222613,0.09497 -0.330078,0.1289063 L 6.4765621,6.463867 c 0.28846,-0.113121 0.568355,-0.2541466 0.839844,-0.4238281 0.271491,-0.1753375 0.52201,-0.3962749 0.753906,-0.6621094 z m -4.351562,0.5019531 c -0.192306,0 -0.354286,0.054848 -0.484375,0.1679688 -0.13009,0.1131212 -0.233315,0.2666785 -0.3125,0.4589844 -0.079185,0.1923058 -0.135986,0.4175557 -0.169922,0.6777344 -0.03394,0.2545222 -0.050781,0.5279472 -0.050781,0.8164062 0,0.288459 0.016841,0.562087 0.050781,0.822266 0.033933,0.254522 0.090734,0.477617 0.169922,0.669921 0.079185,0.192306 0.18241,0.345864 0.3125,0.458985 0.130089,0.1131206 0.292069,0.1679696 0.484375,0.1679696 0.192306,0 0.352333,-0.05485 0.482422,-0.1679696 0.130089,-0.113121 0.235268,-0.266679 0.314453,-0.458985 0.079185,-0.192304 0.135985,-0.415399 0.169922,-0.669921 0.033933,-0.260179 0.050781,-0.533807 0.050781,-0.822266 0,-0.288459 -0.016848,-0.561884 -0.050781,-0.8164062 C 4.6516071,6.9243915 4.5948061,6.6991416 4.5156251,6.5068358 4.4364401,6.3145299 4.3312611,6.1609726 4.2011721,6.0478514 4.0710831,5.9347303 3.9110561,5.8798827 3.7187501,5.8798826 Z m 8.4843749,0 c -0.192306,0 -0.354286,0.054848 -0.484375,0.1679688 -0.130089,0.1131213 -0.235268,0.2666783 -0.314453,0.4589844 -0.07919,0.192306 -0.134032,0.4175555 -0.167969,0.6777344 -0.03393,0.2545222 -0.05273,0.5279472 -0.05273,0.8164062 0,0.288459 0.0188,0.562087 0.05273,0.822266 0.03394,0.254523 0.08879,0.477616 0.167969,0.669921 0.07919,0.192306 0.184364,0.345864 0.314453,0.458985 0.130089,0.1131206 0.292069,0.1679696 0.484375,0.1679696 0.192306,0 0.352333,-0.05485 0.482422,-0.1679696 0.13009,-0.113121 0.235268,-0.266679 0.314453,-0.458985 0.07918,-0.192305 0.135985,-0.415398 0.169922,-0.669921 0.03394,-0.260179 0.05078,-0.533807 0.05078,-0.822266 0,-0.288459 -0.01684,-0.561884 -0.05078,-0.8164062 C 13.135982,6.9243913 13.079181,6.6991418 13,6.5068358 12.920815,6.3145297 12.815637,6.1609727 12.685547,6.0478514 12.555458,5.9347302 12.395431,5.8798827 12.203125,5.8798826 Z M 3.7363281,7.3466794 c 0.141402,0 0.25305,0.056801 0.337891,0.169922 0.090497,0.113121 0.136719,0.243568 0.136719,0.390625 0,0.147058 -0.046222,0.273394 -0.136719,0.380859 -0.084841,0.107466 -0.196489,0.16211 -0.337891,0.16211 -0.147057,0 -0.266925,-0.054644 -0.357422,-0.16211 -0.090496,-0.107465 -0.134765,-0.233801 -0.134765,-0.380859 0,-0.147057 0.044269,-0.277504 0.134765,-0.390625 0.090497,-0.113121 0.210365,-0.169922 0.357422,-0.169922 z m 8.4824219,0 c 0.141401,0 0.255003,0.056801 0.339844,0.169922 0.0905,0.113121 0.136718,0.243568 0.136718,0.390625 0,0.147058 -0.04622,0.273394 -0.136718,0.380859 -0.08484,0.107466 -0.198443,0.16211 -0.339844,0.16211 -0.147058,0 -0.264972,-0.054644 -0.355469,-0.16211 -0.0905,-0.107465 -0.136718,-0.233801 -0.136719,-0.380859 0,-0.147057 0.04622,-0.277504 0.136719,-0.390625 0.0905,-0.113121 0.208411,-0.169922 0.355469,-0.169922 z"/><rect style="fill:none;fill-opacity:1;stroke-width:.57937;stroke-linecap:round;stroke:none" id="rect6" width="16" height="16" x="0" y="0"/></g></svg>