<?xml version="1.0" encoding="UTF-8" standalone="no"?>
<svg
   id="svg974"
   width="128"
   height="128"
   version="1.1"
   viewBox="0 0 33.867 33.867"
   sodipodi:docname="art.taunoerik.tauno-monitor.svg"
   inkscape:version="1.4.2 (ebf0e940d0, 2025-05-08)"
   xmlns:inkscape="http://www.inkscape.org/namespaces/inkscape"
   xmlns:sodipodi="http://sodipodi.sourceforge.net/DTD/sodipodi-0.dtd"
   xmlns="http://www.w3.org/2000/svg"
   xmlns:svg="http://www.w3.org/2000/svg">
  <sodipodi:namedview
     id="namedview1"
     pagecolor="#ffffff"
     bordercolor="#000000"
     borderopacity="0.25"
     inkscape:showpageshadow="2"
     inkscape:pageopacity="0.0"
     inkscape:pagecheckerboard="0"
     inkscape:deskcolor="#d1d1d1"
     inkscape:zoom="4.5299028"
     inkscape:cx="108.83236"
     inkscape:cy="74.394532"
     inkscape:window-width="1920"
     inkscape:window-height="1043"
     inkscape:window-x="0"
     inkscape:window-y="1200"
     inkscape:window-maximized="1"
     inkscape:current-layer="g1" />
  <defs
     id="defs968">
    <clipPath
       id="clipPath18689"
       clipPathUnits="userSpaceOnUse">
      <rect
         id="rect18691"
         width="362.943"
         height="362.943"
         x="486.037"
         y="123.999"
         clip-path="none"
         rx="32"
         ry="32"
         transform="rotate(45)"
         style="display:inline;opacity:1;vector-effect:none;fill:#4a86cf;fill-opacity:1;stroke:none;stroke-width:26.0669;stroke-linecap:butt;stroke-linejoin:miter;stroke-miterlimit:4;stroke-dasharray:none;stroke-dashoffset:0;stroke-opacity:1;marker:none;marker-start:none;marker-mid:none;marker-end:none;paint-order:normal;enable-background:new" />
    </clipPath>
    <clipPath
       id="clipPath18689-3"
       clipPathUnits="userSpaceOnUse">
      <rect
         id="rect18691-6"
         width="362.943"
         height="362.943"
         x="486.037"
         y="123.999"
         clip-path="none"
         rx="32"
         ry="32"
         transform="rotate(45)"
         style="display:inline;opacity:1;vector-effect:none;fill:#4a86cf;fill-opacity:1;stroke:none;stroke-width:26.0669;stroke-linecap:butt;stroke-linejoin:miter;stroke-miterlimit:4;stroke-dasharray:none;stroke-dashoffset:0;stroke-opacity:1;marker:none;marker-start:none;marker-mid:none;marker-end:none;paint-order:normal;enable-background:new" />
    </clipPath>
    <linearGradient
       id="SVGID_2_"
       x1="1.792"
       x2="1.792"
       y1="768.495"
       y2="767.795"
       gradientTransform="matrix(42.587637,0,0,-42.587637,-59.459507,32730.359)"
       gradientUnits="userSpaceOnUse">
      <stop
         id="stop27"
         offset="0"
         style="stop-color:#241f31;stop-opacity:1" />
      <stop
         id="stop29"
         offset="1"
         style="stop-color:#444" />
    </linearGradient>
    <linearGradient
       id="linearGradient173"
       x1="1.792"
       x2="1.792"
       y1="768.495"
       y2="767.795"
       gradientTransform="matrix(448,0,0,-448,-447,344513)"
       gradientUnits="userSpaceOnUse">
      <stop
         id="stop169"
         offset="0"
         style="stop-color:#4d4d4d" />
      <stop
         id="stop171"
         offset="1"
         style="stop-color:#444" />
    </linearGradient>
  </defs>
  <metadata
     id="metadata971" />
  <g
     id="g1">
    <rect
       style="fill:#c0bfbc;fill-opacity:1;stroke-width:.153292;stroke-linecap:round"
       id="rect1"
       width="27.461"
       height="27.623"
       x="3.203"
       y="3.19"
       ry="2.117" />
    <path
       style="display:inline;fill:#474747;fill-opacity:1;stroke:none;stroke-width:.215798;stroke-miterlimit:10;stroke-dasharray:none;stroke-opacity:1;enable-background:new"
       id="path32"
       d="M 5.7412523,4.2164328 H 28.125413 c 0.879726,0 1.596541,0.7166006 1.596541,1.596065 V 28.189981 c 0,0.879464 -0.716815,1.596064 -1.596541,1.596064 H 5.7412523 c -0.8797261,0 -1.5965411,-0.7166 -1.5965411,-1.596064 V 5.8124978 c 0,-0.8794644 0.716815,-1.596065 1.5965411,-1.596065 z"
       class="st4" />
    <path
       style="font-size:9.17326px;font-family:'Ubuntu Mono';-inkscape-font-specification:'Ubuntu Mono';fill:#f7941d;stroke-width:0.153293;stroke-linecap:round"
       id="text1-7"
       d="m 9.6533428,16.812436 c 0,0.311527 -0.088608,0.581117 -0.2658128,0.80877 -0.1661337,0.227653 -0.3876438,0.34148 -0.6645333,0.34148 -0.2879647,0 -0.5205502,-0.11383 -0.6977592,-0.34148 -0.1772089,-0.227653 -0.2658127,-0.497243 -0.2658127,-0.80877 0,-0.311526 0.088608,-0.587106 0.2658127,-0.826741 0.177209,-0.239634 0.4097945,-0.359452 0.6977592,-0.359452 0.2768895,0 0.4983996,0.119812 0.6645333,0.359452 0.177209,0.239635 0.2658128,0.515215 0.2658128,0.826741 z m -4.3526874,0.197701 c 0,-1.869156 0.2935024,-3.300975 0.8805058,-4.295462 0.5980787,-1.006468 1.4342819,-1.509701 2.5086096,-1.509701 1.0854031,0 1.9216062,0.503233 2.5086092,1.509701 0.587003,0.994487 0.880504,2.426306 0.880504,4.295462 0,1.869154 -0.293501,3.306965 -0.880504,4.313433 -0.587003,0.994485 -1.4232061,1.491728 -2.5086092,1.491728 -1.0743277,0 -1.9105309,-0.497243 -2.5086096,-1.491728 C 5.5941578,20.317102 5.3006554,18.879291 5.3006554,17.010137 Z m 5.3827116,0 c 0,-0.61107 -0.03323,-1.186195 -0.09968,-1.725374 -0.06645,-0.551161 -0.177209,-1.030432 -0.332267,-1.437812 -0.155059,-0.40738 -0.3599556,-0.730888 -0.614693,-0.970522 -0.2547375,-0.239634 -0.5703905,-0.359452 -0.9469576,-0.359452 -0.3765685,0 -0.6922215,0.119812 -0.946959,0.359452 -0.2547374,0.239634 -0.4596346,0.563142 -0.614693,0.970522 -0.155057,0.40738 -0.2658128,0.886651 -0.332266,1.437812 -0.066449,0.539179 -0.099681,1.114304 -0.099681,1.725374 0,0.611069 0.033232,1.192185 0.099681,1.743346 0.066449,0.539178 0.177209,1.012457 0.332266,1.419837 0.1550584,0.40738 0.3599556,0.730889 0.614693,0.970523 0.2547375,0.239634 0.5703905,0.359452 0.946959,0.359452 0.3765671,0 0.6922201,-0.119812 0.9469576,-0.359452 0.2547374,-0.239634 0.459634,-0.563143 0.614693,-0.970523 0.155058,-0.40738 0.265812,-0.880659 0.332265,-1.419837 0.06645,-0.551161 0.09968,-1.132277 0.09968,-1.743346 z m 3.405729,-3.253049 c 0.564852,-0.239634 1.113091,-0.539179 1.644716,-0.898632 0.531627,-0.371434 1.024488,-0.838723 1.478583,-1.401865 h 0.963572 v 9.866979 h 1.943759 v 1.258084 H 14.587494 V 21.32357 h 2.226184 v -7.800127 c -0.121826,0.119813 -0.271351,0.245626 -0.44856,0.377425 -0.166133,0.119813 -0.354418,0.239638 -0.564852,0.359454 -0.19936,0.119812 -0.409795,0.233644 -0.631306,0.34148 -0.221511,0.107832 -0.437485,0.197698 -0.647919,0.269589 z m 12.177554,3.055348 c 0,0.311527 -0.08861,0.581117 -0.265812,0.80877 -0.166134,0.227653 -0.387644,0.34148 -0.664534,0.34148 -0.287963,0 -0.520548,-0.11383 -0.697757,-0.34148 -0.177209,-0.227653 -0.265815,-0.497243 -0.265815,-0.80877 0,-0.311526 0.08861,-0.587106 0.265815,-0.826741 0.177209,-0.239634 0.409794,-0.359452 0.697757,-0.359452 0.27689,0 0.4984,0.119812 0.664534,0.359452 0.177209,0.239635 0.265812,0.515215 0.265812,0.826741 z m -4.352687,0.197701 c 0,-1.869156 0.293503,-3.300975 0.880506,-4.295462 0.598079,-1.006468 1.434282,-1.509701 2.50861,-1.509701 1.085403,0 1.921606,0.503233 2.508609,1.509701 0.587004,0.994487 0.880506,2.426306 0.880506,4.295462 0,1.869154 -0.293502,3.306965 -0.880506,4.313433 -0.587003,0.994485 -1.423206,1.491728 -2.508609,1.491728 -1.074328,0 -1.910531,-0.497243 -2.50861,-1.491728 -0.587003,-1.006468 -0.880506,-2.444279 -0.880506,-4.313433 z m 5.382713,0 c 0,-0.611072 -0.03323,-1.186196 -0.09968,-1.725375 -0.06645,-0.551161 -0.17721,-1.030431 -0.332268,-1.437811 -0.155057,-0.40738 -0.359954,-0.730888 -0.614692,-0.970522 -0.254737,-0.239634 -0.57039,-0.359452 -0.946959,-0.359452 -0.376568,0 -0.692221,0.119812 -0.946959,0.359452 -0.254737,0.239634 -0.459635,0.563142 -0.614693,0.970522 -0.155057,0.40738 -0.265813,0.886651 -0.332266,1.437812 -0.06645,0.539179 -0.09968,1.114304 -0.09968,1.725374 0,0.611069 0.03323,1.192185 0.09968,1.743346 0.06645,0.539178 0.177209,1.012457 0.332266,1.419837 0.155058,0.40738 0.359956,0.730889 0.614693,0.970523 0.254738,0.239634 0.570391,0.359452 0.946959,0.359452 0.376569,0 0.692222,-0.119812 0.946959,-0.359452 0.254738,-0.239634 0.459635,-0.563143 0.614692,-0.970523 0.155058,-0.40738 0.265814,-0.880659 0.332267,-1.419837 0.06645,-0.551161 0.09968,-1.132277 0.09968,-1.743346 z"
       aria-label="101"
       sodipodi:nodetypes="scssssscsscscscscsscssssscscssssscsscccccccccccccsccscssssscsscscscscsscssssscscssssscs" />
    <rect
       style="fill:none;fill-opacity:1;stroke:none;stroke-width:.153292;stroke-linecap:round"
       id="rect2"
       width="33.867"
       height="33.867"
       x="0"
       y="0" />
  </g>
</svg>
