<?xml version="1.0" encoding="UTF-8" standalone="no"?>
<svg
   id="svg974"
   width="128"
   height="128"
   version="1.1"
   viewBox="0 0 33.867 33.867"
   sodipodi:docname="uus_art.taunoerik.tauno-monitor.svg"
   inkscape:version="1.4.4 (dcaf3e7d9e, 2026-05-05)"
   xmlns:inkscape="http://www.inkscape.org/namespaces/inkscape"
   xmlns:sodipodi="http://sodipodi.sourceforge.net/DTD/sodipodi-0.dtd"
   xmlns="http://www.w3.org/2000/svg"
   xmlns:svg="http://www.w3.org/2000/svg"
   xmlns:sketch="http://www.bohemiancoding.com/sketch/ns">
  <sodipodi:namedview
     id="namedview1"
     pagecolor="#ffffff"
     bordercolor="#999999"
     borderopacity="1"
     inkscape:showpageshadow="2"
     inkscape:pageopacity="0"
     inkscape:pagecheckerboard="0"
     inkscape:deskcolor="#d1d1d1"
     inkscape:zoom="2.1903737"
     inkscape:cx="-70.079365"
     inkscape:cy="83.775657"
     inkscape:window-width="1920"
     inkscape:window-height="1043"
     inkscape:window-x="0"
     inkscape:window-y="0"
     inkscape:window-maximized="1"
     inkscape:current-layer="svg974"
     showguides="true" />
  <defs
     id="defs968">
    <clipPath
       id="clipPath18689"
       clipPathUnits="userSpaceOnUse">
      <rect
         id="rect18691"
         width="362.943"
         height="362.943"
         x="486.037"
         y="123.999"
         clip-path="none"
         rx="32"
         ry="32"
         transform="rotate(45)"
         style="display:inline;opacity:1;vector-effect:none;fill:#4a86cf;fill-opacity:1;stroke:none;stroke-width:26.0669;stroke-linecap:butt;stroke-linejoin:miter;stroke-miterlimit:4;stroke-dasharray:none;stroke-dashoffset:0;stroke-opacity:1;marker:none;marker-start:none;marker-mid:none;marker-end:none;paint-order:normal;enable-background:new" />
    </clipPath>
    <clipPath
       id="clipPath18689-3"
       clipPathUnits="userSpaceOnUse">
      <rect
         id="rect18691-6"
         width="362.943"
         height="362.943"
         x="486.037"
         y="123.999"
         clip-path="none"
         rx="32"
         ry="32"
         transform="rotate(45)"
         style="display:inline;opacity:1;vector-effect:none;fill:#4a86cf;fill-opacity:1;stroke:none;stroke-width:26.0669;stroke-linecap:butt;stroke-linejoin:miter;stroke-miterlimit:4;stroke-dasharray:none;stroke-dashoffset:0;stroke-opacity:1;marker:none;marker-start:none;marker-mid:none;marker-end:none;paint-order:normal;enable-background:new" />
    </clipPath>
    <linearGradient
       id="SVGID_2_"
       x1="1.792"
       x2="1.792"
       y1="768.495"
       y2="767.795"
       gradientTransform="matrix(42.587637,0,0,-42.587637,-59.459507,32730.359)"
       gradientUnits="userSpaceOnUse">
      <stop
         id="stop27"
         offset="0"
         style="stop-color:#241f31;stop-opacity:1" />
      <stop
         id="stop29"
         offset="1"
         style="stop-color:#444" />
    </linearGradient>
    <linearGradient
       id="linearGradient173"
       x1="1.792"
       x2="1.792"
       y1="768.495"
       y2="767.795"
       gradientTransform="matrix(448,0,0,-448,-447,344513)"
       gradientUnits="userSpaceOnUse">
      <stop
         id="stop169"
         offset="0"
         style="stop-color:#4d4d4d" />
      <stop
         id="stop171"
         offset="1"
         style="stop-color:#444" />
    </linearGradient>
  </defs>
  <metadata
     id="metadata971" />
  <g
     id="g4">
    <rect
       style="fill:none;fill-opacity:1;stroke:none;stroke-width:0.153292;stroke-linecap:round"
       id="rect2"
       width="33.867001"
       height="33.867001"
       x="-2.8991698e-07"
       y="-2.8991698e-07" />
    <g
       stroke="none"
       stroke-width="1"
       fill="none"
       fill-rule="evenodd"
       sketch:type="MSPage"
       id="g2"
       transform="matrix(0.30729338,0,0,0.30729338,1.568831,1.568831)"
       style="fill:#f7941d;fill-opacity:1">
      <g
         sketch:type="MSArtboardGroup"
         fill="#000000"
         id="g1"
         style="fill:#f7941d;fill-opacity:1">
        <path
           d="M 50,5 C 14,5 5,14 5,50 5,86 14,95 50,95 86,95 95,86 95,50 95,14 86,5 50,5 Z"
           sketch:type="MSShapeGroup"
           id="path1"
           style="fill:#f7941d;fill-opacity:1" />
      </g>
    </g>
    <path
       style="font-size:9.17326px;font-family:'Ubuntu Mono';-inkscape-font-specification:'Ubuntu Mono';fill:#474747;fill-opacity:1;stroke-width:0.153293;stroke-linecap:round"
       id="text1-7"
       d="m 9.5904179,16.735799 c 0,0.311527 -0.08861,0.581117 -0.265813,0.80877 -0.166133,0.227653 -0.387643,0.34148 -0.664533,0.34148 -0.287965,0 -0.52055,-0.11383 -0.697759,-0.34148 -0.177209,-0.227653 -0.265813,-0.497243 -0.265813,-0.80877 0,-0.311526 0.08861,-0.587106 0.265813,-0.82674 0.177209,-0.239634 0.409794,-0.359452 0.697759,-0.359452 0.27689,0 0.4984,0.119812 0.664533,0.359452 0.177209,0.239634 0.265813,0.515215 0.265813,0.82674 z M 5.2377309,16.9335 c 0,-1.869156 0.293502,-3.300975 0.880506,-4.29546 0.598078,-1.006468 1.434281,-1.509701 2.508609,-1.509701 1.085403,0 1.9216061,0.503233 2.5086091,1.509701 0.587003,0.994486 0.880504,2.426304 0.880504,4.29546 0,1.869154 -0.293501,3.306965 -0.880504,4.313433 -0.587003,0.994485 -1.4232061,1.491728 -2.5086091,1.491728 -1.074328,0 -1.910531,-0.497243 -2.508609,-1.491728 -0.587004,-1.006468 -0.880506,-2.444279 -0.880506,-4.313433 z m 5.3827111,0 c 0,-0.61107 -0.03323,-1.186194 -0.09968,-1.725374 -0.06645,-0.551161 -0.177209,-1.030432 -0.332267,-1.437811 -0.155059,-0.40738 -0.359955,-0.730889 -0.614693,-0.970521 -0.254737,-0.239635 -0.57039,-0.359452 -0.946957,-0.359452 -0.376569,0 -0.692222,0.119812 -0.946959,0.359452 -0.254738,0.239632 -0.459635,0.563141 -0.614693,0.970521 -0.155057,0.407379 -0.265813,0.886651 -0.332266,1.437812 -0.06645,0.539179 -0.09968,1.114303 -0.09968,1.725373 0,0.611069 0.03323,1.192185 0.09968,1.743346 0.06645,0.539178 0.177209,1.012457 0.332266,1.419837 0.155058,0.40738 0.359955,0.730889 0.614693,0.970523 0.254737,0.239634 0.57039,0.359452 0.946959,0.359452 0.376567,0 0.69222,-0.119812 0.946957,-0.359452 0.254738,-0.239634 0.459634,-0.563143 0.614693,-0.970523 0.155058,-0.40738 0.265812,-0.880659 0.332265,-1.419837 0.06645,-0.551161 0.09968,-1.132277 0.09968,-1.743346 z m 3.405729,-3.253049 c 0.564852,-0.239634 1.113091,-0.539179 1.644716,-0.898631 0.531627,-0.371434 1.024488,-0.838723 1.478583,-1.401865 h 0.963572 v 9.866978 h 1.943759 v 1.258084 h -5.532232 v -1.258084 h 2.226184 v -7.800127 c -0.121826,0.119814 -0.271351,0.245626 -0.44856,0.377426 -0.166133,0.119813 -0.354418,0.239637 -0.564852,0.359453 -0.19936,0.119812 -0.409795,0.233644 -0.631306,0.341481 -0.221511,0.107832 -0.437485,0.197698 -0.647919,0.269589 z m 12.177554,3.055348 c 0,0.311527 -0.08861,0.581117 -0.265812,0.80877 -0.166134,0.227653 -0.387644,0.34148 -0.664534,0.34148 -0.287963,0 -0.520548,-0.11383 -0.697757,-0.34148 -0.177209,-0.227653 -0.265815,-0.497243 -0.265815,-0.80877 0,-0.311526 0.08861,-0.587106 0.265815,-0.826741 0.177209,-0.239634 0.409794,-0.359452 0.697757,-0.359452 0.27689,0 0.4984,0.119812 0.664534,0.359452 0.177209,0.239635 0.265812,0.515215 0.265812,0.826741 z M 21.851038,16.9335 c 0,-1.869156 0.293503,-3.300975 0.880506,-4.295461 0.598079,-1.006468 1.434282,-1.509701 2.50861,-1.509701 1.085403,0 1.921606,0.503233 2.508609,1.509701 0.587004,0.994486 0.880506,2.426305 0.880506,4.295461 0,1.869154 -0.293502,3.306965 -0.880506,4.313433 -0.587003,0.994485 -1.423206,1.491728 -2.508609,1.491728 -1.074328,0 -1.910531,-0.497243 -2.50861,-1.491728 -0.587003,-1.006468 -0.880506,-2.444279 -0.880506,-4.313433 z m 5.382713,0 c 0,-0.611072 -0.03323,-1.186196 -0.09968,-1.725375 -0.06645,-0.551161 -0.17721,-1.030431 -0.332268,-1.437811 -0.155057,-0.40738 -0.359954,-0.730888 -0.614692,-0.970521 -0.254737,-0.239634 -0.57039,-0.359452 -0.946959,-0.359452 -0.376568,0 -0.692221,0.119812 -0.946959,0.359452 -0.254737,0.239633 -0.459635,0.563141 -0.614693,0.970521 -0.155057,0.40738 -0.265813,0.886651 -0.332266,1.437812 -0.06645,0.539179 -0.09968,1.114304 -0.09968,1.725374 0,0.611069 0.03323,1.192185 0.09968,1.743346 0.06645,0.539178 0.177209,1.012457 0.332266,1.419837 0.155058,0.40738 0.359956,0.730889 0.614693,0.970523 0.254738,0.239634 0.570391,0.359452 0.946959,0.359452 0.376569,0 0.692222,-0.119812 0.946959,-0.359452 0.254738,-0.239634 0.459635,-0.563143 0.614692,-0.970523 0.155058,-0.40738 0.265814,-0.880659 0.332267,-1.419837 0.06645,-0.551161 0.09968,-1.132277 0.09968,-1.743346 z"
       aria-label="101" />
  </g>
</svg>
